<svg width="36" height="36" viewBox="0 0 36 36" fill="none" xmlns="http://www.w3.org/2000/svg">
<path fill-rule="evenodd" clip-rule="evenodd" d="M20.4126 14.6904L29.0379 14.7236C29.546 14.7259 30.0092 15.0129 30.235 15.4652C30.4608 15.9173 30.4105 16.4574 30.1051 16.8607L17.3744 33.75C15.4522 32.3238 14.1792 30.1974 13.8354 27.8385C13.4916 25.4797 14.1053 23.0817 15.5413 21.1725L20.4126 14.6904Z" fill="url(#paint0_linear_42_274)"/>
<path fill-rule="evenodd" clip-rule="evenodd" d="M15.5371 21.1725L6.96212 21.1184C6.45405 21.116 5.99077 20.8292 5.76496 20.3769C5.53916 19.9247 5.58946 19.3846 5.89495 18.9812L18.5001 2.25C20.4222 3.67619 21.6953 5.80268 22.039 8.16153C22.3828 10.5204 21.7691 12.9183 20.3331 14.8275L15.5371 21.1725Z" fill="#2684FF"/>
<defs>
<linearGradient id="paint0_linear_42_274" x1="20.0694" y1="15.9553" x2="24.6514" y2="26.4291" gradientUnits="userSpaceOnUse">
<stop stop-color="#0052CC"/>
<stop offset="1" stop-color="#2684FF"/>
</linearGradient>
</defs>
</svg>
